<?xml version="1.0" standalone="no"?><!DOCTYPE svg PUBLIC "-//W3C//DTD SVG 1.1//EN" "http://www.w3.org/Graphics/SVG/1.1/DTD/svg11.dtd"><svg t="1662808480976" class="icon" viewBox="0 0 1024 1024" version="1.1" xmlns="http://www.w3.org/2000/svg" p-id="2038" xmlns:xlink="http://www.w3.org/1999/xlink" width="90" height="90"><path d="M294.4512 153.6a102.4 102.4 0 0 0-101.4784 88.8832l-75.1104 563.2A102.4 102.4 0 0 0 219.3408 921.6h585.3184a102.4 102.4 0 0 0 101.4784-115.9168l-75.1104-563.2A102.4 102.4 0 0 0 729.6 153.6H294.4512zM512 422.4a369.3568 369.3568 0 0 0 185.5488-49.664l38.5024 66.5088A446.1056 446.1056 0 0 1 512 499.2a446.1056 446.1056 0 0 1-224.0512-59.9552l38.5024-66.4576A369.3056 369.3056 0 0 0 512 422.4z" fill="#41AF9B" p-id="2039"></path></svg>