<?xml version="1.0" standalone="no"?><!DOCTYPE svg PUBLIC "-//W3C//DTD SVG 1.1//EN" "http://www.w3.org/Graphics/SVG/1.1/DTD/svg11.dtd"><svg t="1662808488975" class="icon" viewBox="0 0 1024 1024" version="1.1" xmlns="http://www.w3.org/2000/svg" p-id="2354" xmlns:xlink="http://www.w3.org/1999/xlink" width="90" height="90"><path d="M925.5424 500.224a251.9552 251.9552 0 0 0-120.6272-90.4192 294.7072 294.7072 0 0 0 0.3072-14.1824 293.2224 293.2224 0 1 0-586.1376 14.1824 251.4432 251.4432 0 0 0 83.456 488.5504h418.9184A251.392 251.392 0 0 0 972.8 648.6016v-1.6384c0-54.784-17.5104-105.472-47.2576-146.7392z m-45.312 74.1376A173.568 173.568 0 0 1 894.976 665.6a174.592 174.592 0 0 1-173.568 155.9552H302.5408a174.592 174.592 0 0 1-57.9584-339.3024l53.9648-18.944-2.7136-57.1392a216.4224 216.4224 0 1 1 432.64-10.5472v0.1024a251.4432 251.4432 0 0 0-243.8144 166.912l74.496 19.968a174.592 174.592 0 0 1 321.024-8.192z" fill="#999999" p-id="2355"></path></svg>