<?xml version="1.0" standalone="no"?><!DOCTYPE svg PUBLIC "-//W3C//DTD SVG 1.1//EN" "http://www.w3.org/Graphics/SVG/1.1/DTD/svg11.dtd"><svg t="1662197789585" class="icon" viewBox="0 0 1024 1024" version="1.1" xmlns="http://www.w3.org/2000/svg" p-id="895" width="30" height="30" xmlns:xlink="http://www.w3.org/1999/xlink"><path d="M405.333333 469.333333a64 64 0 1 0 0-128 64 64 0 0 0 0 128z" fill="#333333" p-id="896"></path><path d="M223.701333 138.368a85.333333 85.333333 0 0 0-85.333333 85.333333v283.989334a128 128 0 0 0 37.461333 90.538666l267.605334 267.605334a128 128 0 0 0 181.034666 0l241.365334-241.365334a128 128 0 0 0 0-181.034666L598.186667 175.829333a128 128 0 0 0-90.538667-37.461333H223.744z m0 369.322667V223.744h283.989334a42.666667 42.666667 0 0 1 30.208 12.501333l267.605333 267.605334a42.666667 42.666667 0 0 1 0 60.330666l-241.365333 241.365334a42.666667 42.666667 0 0 1-60.330667 0l-267.605333-267.605334a42.666667 42.666667 0 0 1-12.501334-30.165333z" fill="#333333" p-id="897"></path></svg>