<?xml version="1.0" standalone="no"?><!DOCTYPE svg PUBLIC "-//W3C//DTD SVG 1.1//EN" "http://www.w3.org/Graphics/SVG/1.1/DTD/svg11.dtd"><svg t="1662207882092" class="icon" viewBox="0 0 1024 1024" version="1.1" xmlns="http://www.w3.org/2000/svg" p-id="1992" width="90" height="90" xmlns:xlink="http://www.w3.org/1999/xlink"><path d="M841.0112 102.4H182.9888C152.6272 102.4 128 127.0272 128 157.3888v709.2224c0 30.3616 24.6272 54.9888 54.9888 54.9888h658.0224c30.3616 0 54.9888-24.6272 54.9888-54.9888V157.3888C896 127.0272 871.3728 102.4 841.0112 102.4zM182.9888 153.6h658.0224c2.0992 0 3.7888 1.6896 3.7888 3.7888v201.7792h-665.6V157.3888c0-2.0992 1.6896-3.7888 3.7888-3.7888zM844.8 410.4192v201.6256h-665.6V410.4192h665.6zM841.0112 870.4H182.9888a3.7888 3.7888 0 0 1-3.7888-3.7888v-203.4176h665.6v203.4176a3.7888 3.7888 0 0 1-3.7888 3.7888z" p-id="1993"></path><path d="M754.5344 230.912h-84.2752a9.0624 9.0624 0 0 0-9.0624 9.0624v33.0752c0 5.0176 4.0448 9.0624 9.0624 9.0624h84.2752a9.0624 9.0624 0 0 0 9.0624-9.0624v-33.0752a9.0624 9.0624 0 0 0-9.0624-9.0624zM754.5344 486.4h-84.2752a9.0624 9.0624 0 0 0-9.0624 9.0624v33.0752c0 5.0176 4.0448 9.0624 9.0624 9.0624h84.2752a9.0624 9.0624 0 0 0 9.0624-9.0624v-33.0752a9.0624 9.0624 0 0 0-9.0624-9.0624zM754.5344 737.5872h-84.2752a9.0624 9.0624 0 0 0-9.0624 9.0624v33.0752c0 5.0176 4.0448 9.0624 9.0624 9.0624h84.2752a9.0624 9.0624 0 0 0 9.0624-9.0624v-33.0752a9.0624 9.0624 0 0 0-9.0624-9.0624z" p-id="1994"></path></svg>