<?xml version="1.0" standalone="no"?><!DOCTYPE svg PUBLIC "-//W3C//DTD SVG 1.1//EN" "http://www.w3.org/Graphics/SVG/1.1/DTD/svg11.dtd"><svg t="1662210293841" class="icon" viewBox="0 0 1024 1024" version="1.1" xmlns="http://www.w3.org/2000/svg" p-id="1992" xmlns:xlink="http://www.w3.org/1999/xlink" width="90" height="90"><path d="M841.0112 102.4H182.9888C152.6272 102.4 128 127.0272 128 157.3888v709.2224c0 30.3616 24.6272 54.9888 54.9888 54.9888h658.0224c30.3616 0 54.9888-24.6272 54.9888-54.9888V157.3888C896 127.0272 871.3728 102.4 841.0112 102.4z m3.7888 764.2112a3.7888 3.7888 0 0 1-3.7888 3.7888H182.9888a3.7888 3.7888 0 0 1-3.7888-3.7888V157.3888c0-2.0992 1.6896-3.7888 3.7888-3.7888h658.0224c2.0992 0 3.7888 1.6896 3.7888 3.7888v709.2224z" p-id="1993"></path><path d="M692.2752 584.5504H331.7248a24.4736 24.4736 0 1 0 0 49.0496h360.5504a24.576 24.576 0 0 0 0-49.0496zM567.7056 720.5376H331.7248a24.576 24.576 0 0 0 0 49.0496h235.9808a24.576 24.576 0 0 0 0-49.0496zM700.0064 261.6832L563.2 395.4176l-93.696-92.672a25.6 25.6 0 0 0-35.7376-0.256l-119.808 115.5584a25.6 25.6 0 0 0 35.4816 36.864l101.7856-98.2016 93.8496 92.8256a25.6 25.6 0 0 0 35.8912 0.1024l154.7776-151.3472a25.6 25.6 0 0 0-35.7376-36.608z" p-id="1994"></path></svg>