<?xml version="1.0" standalone="no"?><!DOCTYPE svg PUBLIC "-//W3C//DTD SVG 1.1//EN" "http://www.w3.org/Graphics/SVG/1.1/DTD/svg11.dtd"><svg t="1662808477186" class="icon" viewBox="0 0 1024 1024" version="1.1" xmlns="http://www.w3.org/2000/svg" p-id="1883" xmlns:xlink="http://www.w3.org/1999/xlink" width="90" height="90"><path d="M512 422.4a369.3056 369.3056 0 0 1-185.5488-49.664L287.9488 439.296A446.1056 446.1056 0 0 0 512 499.2a446.1056 446.1056 0 0 0 224.0512-59.9552l-38.5024-66.4576A369.3568 369.3568 0 0 1 512 422.4z" fill="#999999" p-id="1884"></path><path d="M192.9728 242.4832A102.4 102.4 0 0 1 294.4 153.6h435.0976a102.4 102.4 0 0 1 101.4784 88.8832l75.1104 563.2A102.4 102.4 0 0 1 804.6592 921.6H219.3408a102.4 102.4 0 0 1-101.4784-115.9168l75.1104-563.2zM294.4 230.4a25.6 25.6 0 0 0-25.3952 22.2208l-75.0592 563.2a25.6 25.6 0 0 0 25.344 28.9792h585.3184a25.6 25.6 0 0 0 25.344-28.9792l-75.0592-563.2a25.6 25.6 0 0 0-25.3952-22.2208H294.4512z" fill="#999999" p-id="1885"></path></svg>