<?xml version="1.0" standalone="no"?><!DOCTYPE svg PUBLIC "-//W3C//DTD SVG 1.1//EN" "http://www.w3.org/Graphics/SVG/1.1/DTD/svg11.dtd"><svg t="1662808461456" class="icon" viewBox="0 0 1024 1024" version="1.1" xmlns="http://www.w3.org/2000/svg" p-id="1728" xmlns:xlink="http://www.w3.org/1999/xlink" width="90" height="90"><path d="M128 512a384 384 0 1 1 768 0 384 384 0 0 1-768 0zM512 51.2a460.8 460.8 0 1 0 0 921.6 460.8 460.8 0 0 0 0-921.6z" fill="#999999" p-id="1729"></path><path d="M798.208 768A382.9248 382.9248 0 0 1 512 896 382.9248 382.9248 0 0 1 225.792 768 382.976 382.976 0 0 1 512 640c113.664 0 215.8592 49.3568 286.208 128zM512 972.8c159.744 0 300.544-81.3056 383.232-204.8A460.3392 460.3392 0 0 0 512 563.2a460.3392 460.3392 0 0 0-383.1808 204.8A460.3392 460.3392 0 0 0 512 972.8zM435.2 358.4a76.8 76.8 0 1 1 153.6 0 76.8 76.8 0 0 1-153.6 0zM512 204.8a153.6 153.6 0 1 0 0 307.2 153.6 153.6 0 0 0 0-307.2z" fill="#999999" p-id="1730"></path></svg>