<?xml version="1.0" standalone="no"?><!DOCTYPE svg PUBLIC "-//W3C//DTD SVG 1.1//EN" "http://www.w3.org/Graphics/SVG/1.1/DTD/svg11.dtd"><svg t="1662808457012" class="icon" viewBox="0 0 1024 1024" version="1.1" xmlns="http://www.w3.org/2000/svg" p-id="1569" xmlns:xlink="http://www.w3.org/1999/xlink" width="90" height="90"><path d="M128 512a384 384 0 1 1 768 0 384 384 0 0 1-768 0zM512 51.2a460.8 460.8 0 1 0 0 921.6 460.8 460.8 0 0 0 0-921.6z" fill="#41AF9B" p-id="1570"></path><path d="M895.232 768A460.3392 460.3392 0 0 1 512 972.8a460.3392 460.3392 0 0 1-383.1808-204.8A460.3392 460.3392 0 0 1 512 563.2c159.744 0 300.544 81.3056 383.232 204.8zM358.4 358.4a153.6 153.6 0 1 1 307.2 0 153.6 153.6 0 0 1-307.2 0z" fill="#41AF9B" p-id="1571"></path></svg>