<?xml version="1.0" standalone="no"?><!DOCTYPE svg PUBLIC "-//W3C//DTD SVG 1.1//EN" "http://www.w3.org/Graphics/SVG/1.1/DTD/svg11.dtd"><svg t="1662808422007" class="icon" viewBox="0 0 1024 1024" version="1.1" xmlns="http://www.w3.org/2000/svg" p-id="1207" xmlns:xlink="http://www.w3.org/1999/xlink" width="90" height="90"><path d="M102.4 370.4832a102.4 102.4 0 0 1 56.6272-91.5968l307.2-153.6a102.4 102.4 0 0 1 91.5456 0l307.2 153.6A102.4 102.4 0 0 1 921.6 370.5344V819.2a102.4 102.4 0 0 1-102.4 102.4h-204.8a51.2 51.2 0 0 1-51.2-51.2v-179.2a25.6 25.6 0 0 0-25.6-25.6h-51.2a25.6 25.6 0 0 0-25.6 25.6V870.4a51.2 51.2 0 0 1-51.2 51.2H204.8a102.4 102.4 0 0 1-102.4-102.4V370.4832z" fill="#bfbfbf" p-id="1208"></path></svg>